<svg width="573" height="224" viewBox="0 0 573 224" fill="none" xmlns="http://www.w3.org/2000/svg">
<g filter="url(#filter0_d_1_14)">
<mask id="path-1-outside-1_1_14" maskUnits="userSpaceOnUse" x="3" y="-1" width="567" height="218" fill="black">
<rect fill="white" x="3" y="-1" width="567" height="218"/>
<path d="M38.8 2.99999H83.5L117.7 213H84.7L78.7 171.3V171.9H41.2L35.2 213H4.6L38.8 2.99999ZM74.8 143.4L60.1 39.6H59.5L45.1 143.4H74.8ZM133.71 2.99999H182.31C198.71 2.99999 211.01 7.39999 219.21 16.2C227.41 25 231.51 37.9 231.51 54.9V75.6C231.51 92.6 227.41 105.5 219.21 114.3C211.01 123.1 198.71 127.5 182.31 127.5H166.71V213H133.71V2.99999ZM182.31 97.5C187.71 97.5 191.71 96 194.31 93C197.11 90 198.51 84.9 198.51 77.7V52.8C198.51 45.6 197.11 40.5 194.31 37.5C191.71 34.5 187.71 33 182.31 33H166.71V97.5H182.31ZM297.433 216C281.433 216 269.233 211.5 260.833 202.5C252.433 193.3 248.233 180.2 248.233 163.2V2.99999H281.233V165.6C281.233 172.8 282.633 178 285.433 181.2C288.433 184.4 292.633 186 298.033 186C303.433 186 307.533 184.4 310.333 181.2C313.333 178 314.833 172.8 314.833 165.6V2.99999H346.633V163.2C346.633 180.2 342.433 193.3 334.033 202.5C325.633 211.5 313.433 216 297.433 216ZM370.136 2.99999H457.436V33H403.136V91.5H445.736V121.5H403.136V213H370.136V2.99999ZM519.761 216C503.961 216 491.861 211.5 483.461 202.5C475.261 193.5 471.161 180.8 471.161 164.4V51.6C471.161 35.2 475.261 22.5 483.461 13.5C491.861 4.49999 503.961 -1.14441e-05 519.761 -1.14441e-05C535.561 -1.14441e-05 547.561 4.49999 555.761 13.5C564.161 22.5 568.361 35.2 568.361 51.6V73.8H537.161V49.5C537.161 36.5 531.661 30 520.661 30C509.661 30 504.161 36.5 504.161 49.5V166.8C504.161 179.6 509.661 186 520.661 186C531.661 186 537.161 179.6 537.161 166.8V134.7H568.361V164.4C568.361 180.8 564.161 193.5 555.761 202.5C547.561 211.5 535.561 216 519.761 216Z"/>
</mask>
<path d="M38.8 2.99999H83.5L117.7 213H84.7L78.7 171.3V171.9H41.2L35.2 213H4.6L38.8 2.99999ZM74.8 143.4L60.1 39.6H59.5L45.1 143.4H74.8ZM133.71 2.99999H182.31C198.71 2.99999 211.01 7.39999 219.21 16.2C227.41 25 231.51 37.9 231.51 54.9V75.6C231.51 92.6 227.41 105.5 219.21 114.3C211.01 123.1 198.71 127.5 182.31 127.5H166.71V213H133.71V2.99999ZM182.31 97.5C187.71 97.5 191.71 96 194.31 93C197.11 90 198.51 84.9 198.51 77.7V52.8C198.51 45.6 197.11 40.5 194.31 37.5C191.71 34.5 187.71 33 182.31 33H166.71V97.5H182.31ZM297.433 216C281.433 216 269.233 211.5 260.833 202.5C252.433 193.3 248.233 180.2 248.233 163.2V2.99999H281.233V165.6C281.233 172.8 282.633 178 285.433 181.2C288.433 184.4 292.633 186 298.033 186C303.433 186 307.533 184.4 310.333 181.2C313.333 178 314.833 172.8 314.833 165.6V2.99999H346.633V163.2C346.633 180.2 342.433 193.3 334.033 202.5C325.633 211.5 313.433 216 297.433 216ZM370.136 2.99999H457.436V33H403.136V91.5H445.736V121.5H403.136V213H370.136V2.99999ZM519.761 216C503.961 216 491.861 211.5 483.461 202.5C475.261 193.5 471.161 180.8 471.161 164.4V51.6C471.161 35.2 475.261 22.5 483.461 13.5C491.861 4.49999 503.961 -1.14441e-05 519.761 -1.14441e-05C535.561 -1.14441e-05 547.561 4.49999 555.761 13.5C564.161 22.5 568.361 35.2 568.361 51.6V73.8H537.161V49.5C537.161 36.5 531.661 30 520.661 30C509.661 30 504.161 36.5 504.161 49.5V166.8C504.161 179.6 509.661 186 520.661 186C531.661 186 537.161 179.6 537.161 166.8V134.7H568.361V164.4C568.361 180.8 564.161 193.5 555.761 202.5C547.561 211.5 535.561 216 519.761 216Z" fill="url(#paint0_linear_1_14)"/>
<path d="M38.8 2.99999V1.99999H37.9497L37.813 2.83925L38.8 2.99999ZM83.5 2.99999L84.487 2.83925L84.3503 1.99999H83.5V2.99999ZM117.7 213V214H118.876L118.687 212.839L117.7 213ZM84.7 213L83.7102 213.142L83.8336 214H84.7V213ZM78.7 171.3L79.6898 171.158L77.7 171.3H78.7ZM78.7 171.9V172.9H79.7V171.9H78.7ZM41.2 171.9V170.9H40.3354L40.2105 171.756L41.2 171.9ZM35.2 213V214H36.0646L36.1895 213.144L35.2 213ZM4.6 213L3.613 212.839L3.42397 214H4.6V213ZM74.8 143.4V144.4H75.9516L75.7901 143.26L74.8 143.4ZM60.1 39.6L61.0901 39.4598L60.9684 38.6H60.1V39.6ZM59.5 39.6V38.6H58.6292L58.5095 39.4626L59.5 39.6ZM45.1 143.4L44.1095 143.263L43.9517 144.4H45.1V143.4ZM38.8 3.99999H83.5V1.99999H38.8V3.99999ZM82.513 3.16073L116.713 213.161L118.687 212.839L84.487 2.83925L82.513 3.16073ZM117.7 212H84.7V214H117.7V212ZM85.6898 212.858L79.6898 171.158L77.7102 171.442L83.7102 213.142L85.6898 212.858ZM77.7 171.3V171.9H79.7V171.3H77.7ZM78.7 170.9H41.2V172.9H78.7V170.9ZM40.2105 171.756L34.2105 212.856L36.1895 213.144L42.1895 172.044L40.2105 171.756ZM35.2 212H4.6V214H35.2V212ZM5.587 213.161L39.787 3.16073L37.813 2.83925L3.613 212.839L5.587 213.161ZM75.7901 143.26L61.0901 39.4598L59.1099 39.7402L73.8099 143.54L75.7901 143.26ZM60.1 38.6H59.5V40.6H60.1V38.6ZM58.5095 39.4626L44.1095 143.263L46.0905 143.537L60.4905 39.7374L58.5095 39.4626ZM45.1 144.4H74.8V142.4H45.1V144.4ZM133.71 2.99999V1.99999H132.71V2.99999H133.71ZM219.21 16.2L218.479 16.8817L218.479 16.8817L219.21 16.2ZM219.21 114.3L218.479 113.618L218.479 113.618L219.21 114.3ZM166.71 127.5V126.5H165.71V127.5H166.71ZM166.71 213V214H167.71V213H166.71ZM133.71 213H132.71V214H133.71V213ZM194.31 93L193.579 92.3177L193.567 92.3311L193.554 92.3451L194.31 93ZM194.31 37.5L193.554 38.1549L193.567 38.1688L193.579 38.1823L194.31 37.5ZM166.71 33V32H165.71V33H166.71ZM166.71 97.5H165.71V98.5H166.71V97.5ZM133.71 3.99999H182.31V1.99999H133.71V3.99999ZM182.31 3.99999C198.537 3.99999 210.529 8.35026 218.479 16.8817L219.942 15.5183C211.492 6.44971 198.883 1.99999 182.31 1.99999V3.99999ZM218.479 16.8817C226.446 25.4321 230.51 38.0484 230.51 54.9H232.51C232.51 37.7516 228.374 24.5679 219.942 15.5183L218.479 16.8817ZM230.51 54.9V75.6H232.51V54.9H230.51ZM230.51 75.6C230.51 92.4516 226.446 105.068 218.479 113.618L219.942 114.982C228.374 105.932 232.51 92.7484 232.51 75.6H230.51ZM218.479 113.618C210.529 122.15 198.537 126.5 182.31 126.5V128.5C198.883 128.5 211.492 124.05 219.942 114.982L218.479 113.618ZM182.31 126.5H166.71V128.5H182.31V126.5ZM165.71 127.5V213H167.71V127.5H165.71ZM166.71 212H133.71V214H166.71V212ZM134.71 213V2.99999H132.71V213H134.71ZM182.31 98.5C187.89 98.5 192.214 96.9452 195.066 93.6549L193.554 92.3451C191.206 95.0548 187.53 96.5 182.31 96.5V98.5ZM195.041 93.6823C198.105 90.4 199.51 84.9784 199.51 77.7H197.51C197.51 84.8216 196.116 89.6 193.579 92.3177L195.041 93.6823ZM199.51 77.7V52.8H197.51V77.7H199.51ZM199.51 52.8C199.51 45.5216 198.105 40.0999 195.041 36.8177L193.579 38.1823C196.116 40.9 197.51 45.6784 197.51 52.8H199.51ZM195.066 36.8451C192.214 33.5548 187.89 32 182.31 32V34C187.53 34 191.206 35.4452 193.554 38.1549L195.066 36.8451ZM182.31 32H166.71V34H182.31V32ZM165.71 33V97.5H167.71V33H165.71ZM166.71 98.5H182.31V96.5H166.71V98.5ZM260.833 202.5L260.094 203.174L260.102 203.182L260.833 202.5ZM248.233 2.99999V1.99999H247.233V2.99999H248.233ZM281.233 2.99999H282.233V1.99999H281.233V2.99999ZM285.433 181.2L284.68 181.859L284.692 181.871L284.703 181.884L285.433 181.2ZM310.333 181.2L309.603 180.516L309.592 180.529L309.58 180.541L310.333 181.2ZM314.833 2.99999V1.99999H313.833V2.99999H314.833ZM346.633 2.99999H347.633V1.99999H346.633V2.99999ZM334.033 202.5L334.764 203.182L334.771 203.174L334.033 202.5ZM297.433 215C281.622 215 269.722 210.559 261.564 201.818L260.102 203.182C268.743 212.441 281.243 217 297.433 217V215ZM261.571 201.826C253.393 192.868 249.233 180.042 249.233 163.2H247.233C247.233 180.358 251.473 193.732 260.094 203.174L261.571 201.826ZM249.233 163.2V2.99999H247.233V163.2H249.233ZM248.233 3.99999H281.233V1.99999H248.233V3.99999ZM280.233 2.99999V165.6H282.233V2.99999H280.233ZM280.233 165.6C280.233 172.887 281.642 178.386 284.68 181.859L286.185 180.541C283.624 177.614 282.233 172.713 282.233 165.6H280.233ZM284.703 181.884C287.935 185.331 292.425 187 298.033 187V185C292.841 185 288.931 183.469 286.162 180.516L284.703 181.884ZM298.033 187C303.638 187 308.047 185.331 311.085 181.859L309.58 180.541C307.019 183.469 303.228 185 298.033 185V187ZM311.062 181.884C314.318 178.411 315.833 172.9 315.833 165.6H313.833C313.833 172.7 312.347 177.589 309.603 180.516L311.062 181.884ZM315.833 165.6V2.99999H313.833V165.6H315.833ZM314.833 3.99999H346.633V1.99999H314.833V3.99999ZM345.633 2.99999V163.2H347.633V2.99999H345.633ZM345.633 163.2C345.633 180.042 341.473 192.868 333.294 201.826L334.771 203.174C343.393 193.732 347.633 180.358 347.633 163.2H345.633ZM333.302 201.818C325.143 210.559 313.243 215 297.433 215V217C313.622 217 326.122 212.441 334.764 203.182L333.302 201.818ZM370.136 2.99999V1.99999H369.136V2.99999H370.136ZM457.436 2.99999H458.436V1.99999H457.436V2.99999ZM457.436 33V34H458.436V33H457.436ZM403.136 33V32H402.136V33H403.136ZM403.136 91.5H402.136V92.5H403.136V91.5ZM445.736 91.5H446.736V90.5H445.736V91.5ZM445.736 121.5V122.5H446.736V121.5H445.736ZM403.136 121.5V120.5H402.136V121.5H403.136ZM403.136 213V214H404.136V213H403.136ZM370.136 213H369.136V214H370.136V213ZM370.136 3.99999H457.436V1.99999H370.136V3.99999ZM456.436 2.99999V33H458.436V2.99999H456.436ZM457.436 32H403.136V34H457.436V32ZM402.136 33V91.5H404.136V33H402.136ZM403.136 92.5H445.736V90.5H403.136V92.5ZM444.736 91.5V121.5H446.736V91.5H444.736ZM445.736 120.5H403.136V122.5H445.736V120.5ZM402.136 121.5V213H404.136V121.5H402.136ZM403.136 212H370.136V214H403.136V212ZM371.136 213V2.99999H369.136V213H371.136ZM483.461 202.5L482.722 203.174L482.73 203.182L483.461 202.5ZM483.461 13.5L482.73 12.8176L482.722 12.8265L483.461 13.5ZM555.761 13.5L555.022 14.1735L555.03 14.1823L555.761 13.5ZM568.361 73.8V74.8H569.361V73.8H568.361ZM537.161 73.8H536.161V74.8H537.161V73.8ZM537.161 134.7V133.7H536.161V134.7H537.161ZM568.361 134.7H569.361V133.7H568.361V134.7ZM555.761 202.5L555.03 201.818L555.022 201.827L555.761 202.5ZM519.761 215C504.155 215 492.353 210.561 484.192 201.818L482.73 203.182C491.369 212.439 503.767 217 519.761 217V215ZM484.2 201.827C476.219 193.067 472.161 180.639 472.161 164.4H470.161C470.161 180.961 474.303 193.933 482.722 203.173L484.2 201.827ZM472.161 164.4V51.6H470.161V164.4H472.161ZM472.161 51.6C472.161 35.3614 476.219 22.9334 484.2 14.1735L482.722 12.8265C474.303 22.0666 470.161 35.0386 470.161 51.6H472.161ZM484.192 14.1823C492.353 5.43863 504.155 0.999989 519.761 0.999989V-1.00001C503.767 -1.00001 491.369 3.56135 482.73 12.8177L484.192 14.1823ZM519.761 0.999989C535.368 0.999989 547.064 5.43904 555.022 14.1735L556.5 12.8265C548.058 3.56094 535.754 -1.00001 519.761 -1.00001V0.999989ZM555.03 14.1823C563.206 22.9426 567.361 35.3672 567.361 51.6H569.361C569.361 35.0327 565.116 22.0574 556.492 12.8177L555.03 14.1823ZM567.361 51.6V73.8H569.361V51.6H567.361ZM568.361 72.8H537.161V74.8H568.361V72.8ZM538.161 73.8V49.5H536.161V73.8H538.161ZM538.161 49.5C538.161 42.8829 536.765 37.7336 533.799 34.2291C530.807 30.6926 526.363 29 520.661 29V31C525.959 31 529.765 32.5574 532.273 35.5209C534.807 38.5164 536.161 43.1171 536.161 49.5H538.161ZM520.661 29C514.959 29 510.515 30.6926 507.523 34.2291C504.557 37.7336 503.161 42.8829 503.161 49.5H505.161C505.161 43.1171 506.515 38.5164 509.049 35.5209C511.557 32.5574 515.363 31 520.661 31V29ZM503.161 49.5V166.8H505.161V49.5H503.161ZM503.161 166.8C503.161 173.32 504.559 178.397 507.528 181.852C510.521 185.336 514.964 187 520.661 187V185C515.358 185 511.55 183.464 509.044 180.548C506.513 177.603 505.161 173.08 505.161 166.8H503.161ZM520.661 187C526.358 187 530.8 185.336 533.794 181.852C536.763 178.397 538.161 173.32 538.161 166.8H536.161C536.161 173.08 534.809 177.603 532.278 180.548C529.771 183.464 525.964 185 520.661 185V187ZM538.161 166.8V134.7H536.161V166.8H538.161ZM537.161 135.7H568.361V133.7H537.161V135.7ZM567.361 134.7V164.4H569.361V134.7H567.361ZM567.361 164.4C567.361 180.633 563.206 193.057 555.03 201.818L556.492 203.182C565.116 193.943 569.361 180.967 569.361 164.4H567.361ZM555.022 201.827C547.064 210.561 535.368 215 519.761 215V217C535.754 217 548.058 212.439 556.5 203.173L555.022 201.827Z" fill="black" mask="url(#path-1-outside-1_1_14)"/>
</g>
<defs>
<filter id="filter0_d_1_14" x="0.599976" y="0" width="571.761" height="224" filterUnits="userSpaceOnUse" color-interpolation-filters="sRGB">
<feFlood flood-opacity="0" result="BackgroundImageFix"/>
<feColorMatrix in="SourceAlpha" type="matrix" values="0 0 0 0 0 0 0 0 0 0 0 0 0 0 0 0 0 0 127 0" result="hardAlpha"/>
<feOffset dy="4"/>
<feGaussianBlur stdDeviation="2"/>
<feComposite in2="hardAlpha" operator="out"/>
<feColorMatrix type="matrix" values="0 0 0 0 0 0 0 0 0 0 0 0 0 0 0 0 0 0 0.25 0"/>
<feBlend mode="normal" in2="BackgroundImageFix" result="effect1_dropShadow_1_14"/>
<feBlend mode="normal" in="SourceGraphic" in2="effect1_dropShadow_1_14" result="shape"/>
</filter>
<linearGradient id="paint0_linear_1_14" x1="386" y1="199" x2="386" y2="100.5" gradientUnits="userSpaceOnUse">
<stop stop-color="#59009F"/>
<stop offset="1" stop-color="white"/>
</linearGradient>
</defs>
</svg>
